<?xml version="1.0" encoding="UTF-8"?>
<svg id="Layer_2" data-name="Layer 2" xmlns="http://www.w3.org/2000/svg" viewBox="0 0 833.69 362.54">
  <defs>
    <style>
      .cls-1 {
        fill: #fff;
      }
    </style>
  </defs>
  <g id="Layer_1-2" data-name="Layer 1">
    <g>
      <g>
        <path class="cls-1" d="M138.84,98.99c-11.92,4.4-22.16,10.52-30.72,18.36-8.56,7.84-12.84,16.8-12.84,26.88,0,8.32,2.92,15,8.76,20.04,5.84,5.04,13.08,7.56,21.72,7.56,6.88,0,13.12-1.6,18.72-4.8,5.6-3.2,10.24-7.2,13.92-12,3.68-4.8,6.24-9.68,7.68-14.64h1.2v10.8c0,13.76,5.12,20.64,15.36,20.64,6.72,0,11.88-2.64,15.48-7.92s5.4-12.24,5.4-20.88h-1.68c0,3.36-.68,6-2.04,7.92-1.36,1.92-3,2.88-4.92,2.88-3.36,0-5.04-3.28-5.04-9.84v-64.79c0-11.68-3.76-20.44-11.28-26.28-7.52-5.84-18.48-8.76-32.88-8.76-7.84,0-14.84,1-21,3-6.16,2-11,4.76-14.52,8.28-3.52,3.52-5.28,7.44-5.28,11.76,0,3.36.96,6.2,2.88,8.52,1.92,2.32,4.56,3.48,7.92,3.48,3.04,0,5.36-.88,6.96-2.64,1.59-1.76,3.44-4.56,5.52-8.4,2.56-4.8,5.12-8.44,7.68-10.92,2.56-2.48,6.4-3.72,11.52-3.72,12.32,0,18.48,8.56,18.48,25.68v13.38c-7.95.58-16.94,2.71-27,6.42ZM150.96,152.39c-4.48,5.12-9.6,7.68-15.36,7.68-4.64,0-8.48-1.8-11.52-5.4-3.04-3.6-4.56-8.36-4.56-14.28,0-7.84,2.64-14.76,7.92-20.76,5.28-6,11.88-10.56,19.8-13.68,6.33-2.49,12.53-3.97,18.6-4.47v8.43c-.16,7.68-1.56,15.4-4.2,23.16-2.64,7.76-6.2,14.2-10.68,19.32Z"/>
        <path class="cls-1" d="M242.39,215.98h23.76v-4.8c-7.36-1.28-12.4-3.44-15.12-6.48-2.72-3.04-4.08-8.4-4.08-16.08v-29.52h.96c7.36,8.48,17.12,12.72,29.28,12.72,9.44,0,17.64-2.72,24.6-8.16,6.96-5.44,12.28-13.24,15.96-23.4,3.68-10.16,5.52-22.04,5.52-35.64,0-14.4-2.01-26.12-6-35.16-4-9.04-9.24-15.52-15.72-19.44-6.48-3.92-13.64-5.88-21.48-5.88s-14.4,1.72-19.68,5.16c-5.28,3.44-9.36,7.96-12.24,13.56h-1.2v-14.88h-38.16v4.8c5.44,1.28,9.16,3.44,11.16,6.48,2,3.04,3,8.4,3,16.08v113.27c0,7.68-1,13.04-3,16.08-2,3.04-5.72,5.2-11.16,6.48v4.8h33.6ZM255.23,61.44c5.04-5.12,10.92-7.68,17.64-7.68,7.83,0,14,4.08,18.48,12.24,4.48,8.16,6.72,21.92,6.72,41.28s-2.16,33.24-6.48,42.12c-4.32,8.88-10.72,13.32-19.2,13.32-6.88,0-12.68-2.4-17.4-7.2-4.72-4.8-7.4-10.88-8.04-18.24v-55.2c.48-8.64,3.24-15.52,8.28-20.64Z"/>
        <path class="cls-1" d="M363.34,215.98h23.76v-4.8c-7.36-1.28-12.4-3.44-15.12-6.48-2.72-3.04-4.08-8.4-4.08-16.08v-29.52h.96c7.36,8.48,17.12,12.72,29.28,12.72,9.44,0,17.64-2.72,24.6-8.16,6.96-5.44,12.28-13.24,15.96-23.4,3.68-10.16,5.52-22.04,5.52-35.64,0-14.4-2.01-26.12-6-35.16-4-9.04-9.24-15.52-15.72-19.44-6.48-3.92-13.64-5.88-21.48-5.88s-14.4,1.72-19.68,5.16c-5.28,3.44-9.36,7.96-12.24,13.56h-1.2v-14.88h-38.16v4.8c5.44,1.28,9.16,3.44,11.16,6.48,2,3.04,3,8.4,3,16.08v113.27c0,7.68-1,13.04-3,16.08-2,3.04-5.72,5.2-11.16,6.48v4.8h33.6ZM376.18,61.44c5.04-5.12,10.92-7.68,17.64-7.68,7.83,0,14,4.08,18.48,12.24,4.48,8.16,6.72,21.92,6.72,41.28s-2.16,33.24-6.48,42.12c-4.32,8.88-10.72,13.32-19.2,13.32-6.88,0-12.68-2.4-17.4-7.2-4.72-4.8-7.4-10.88-8.04-18.24v-55.2c.48-8.64,3.24-15.52,8.28-20.64Z"/>
        <path class="cls-1" d="M491.37,156.71c-2-3.04-3-8.4-3-16.08V0h-38.16v4.8c5.44,1.28,9.16,3.44,11.16,6.48,2,3.04,3,8.4,3,16.08v113.27c0,7.68-1,13.04-3,16.08-2,3.04-5.72,5.2-11.16,6.48v4.8h52.32v-4.8c-5.44-1.28-9.16-3.44-11.16-6.48Z"/>
        <path class="cls-1" d="M572.6,155.03c3.68-4.8,6.24-9.68,7.68-14.64h1.2v10.8c0,13.76,5.12,20.64,15.36,20.64,6.72,0,11.88-2.64,15.48-7.92,3.6-5.28,5.4-12.24,5.4-20.88h-1.68c0,3.36-.68,6-2.04,7.92-1.36,1.92-3,2.88-4.92,2.88-3.36,0-5.04-3.28-5.04-9.84v-64.79c0-11.68-3.76-20.44-11.28-26.28-7.52-5.84-18.48-8.76-32.88-8.76-7.84,0-14.84,1-21,3-6.16,2-11,4.76-14.52,8.28-3.52,3.52-5.28,7.44-5.28,11.76,0,3.36.96,6.2,2.88,8.52,1.92,2.32,4.56,3.48,7.92,3.48,3.04,0,5.36-.88,6.96-2.64,1.59-1.76,3.44-4.56,5.52-8.4,2.56-4.8,5.12-8.44,7.68-10.92,2.56-2.48,6.4-3.72,11.52-3.72,12.32,0,18.48,8.56,18.48,25.68v13.38c-7.95.58-16.94,2.71-27,6.42-11.92,4.4-22.16,10.52-30.72,18.36-8.56,7.84-12.84,16.8-12.84,26.88,0,8.32,2.92,15,8.76,20.04,5.84,5.04,13.08,7.56,21.72,7.56,6.88,0,13.12-1.6,18.72-4.8,5.6-3.2,10.24-7.2,13.92-12ZM549.8,160.07c-4.64,0-8.48-1.8-11.52-5.4-3.04-3.6-4.56-8.36-4.56-14.28,0-7.84,2.64-14.76,7.92-20.76,5.28-6,11.88-10.56,19.8-13.68,6.33-2.49,12.53-3.97,18.6-4.47v8.43c-.16,7.68-1.56,15.4-4.2,23.16-2.64,7.76-6.2,14.2-10.68,19.32-4.48,5.12-9.6,7.68-15.36,7.68Z"/>
        <path class="cls-1" d="M631.75,59.27c2,3.04,3,8.4,3,16.08v62.4c0,10.88,2.96,19.28,8.88,25.2,5.92,5.92,14,8.88,24.24,8.88,8.48,0,15.48-2.08,21-6.24,5.52-4.16,9.4-10.24,11.64-18.24h.96v20.64l38.16-.72v-5.04c-5.44-.8-9.16-2.72-11.16-5.76-2-3.04-3-8.4-3-16.08V48h-38.16v4.8c5.44,1.28,9.16,3.44,11.16,6.48,2,3.04,3,8.4,3,16.08v49.37c-1.52,11.1-4.48,19.73-8.88,25.87-4.64,6.48-10.56,9.72-17.76,9.72-5.92,0-10.08-2.44-12.48-7.32-2.4-4.88-3.6-13.24-3.6-25.08V48h-38.16v4.8c5.44,1.28,9.16,3.44,11.16,6.48Z"/>
        <path class="cls-1" d="M828.41,113.87c-3.52-5.52-7.72-9.88-12.6-13.08-4.88-3.2-11.24-6.72-19.08-10.56-8.48-4.32-14.72-8.08-18.72-11.28-4-3.2-6-7.44-6-12.72,0-4.32,1.56-7.92,4.68-10.8,3.12-2.88,7.72-4.32,13.8-4.32,6.88,0,12.8,2.44,17.76,7.32,4.96,4.88,9.2,12.36,12.72,22.44h5.04l4.32-27.84c-4.16-2.72-9.64-4.88-16.44-6.48-6.8-1.6-13.72-2.4-20.76-2.4-12,0-21.32,3.04-27.96,9.12-6.64,6.08-9.96,14.48-9.96,25.2,0,7.36,1.64,13.52,4.92,18.48,3.28,4.96,7.24,8.96,11.88,12,4.64,3.04,10.64,6.24,18,9.6,6.24,3.04,11.08,5.6,14.52,7.68,3.44,2.08,6.32,4.68,8.64,7.8,2.32,3.12,3.48,6.84,3.48,11.16,0,5.76-1.96,10.36-5.88,13.8-3.92,3.44-9.16,5.16-15.72,5.16-16.48,0-28.08-12.4-34.8-37.2h-5.04l-4.8,30.96c5.28,4.32,11.36,7.72,18.24,10.2,6.88,2.48,14.4,3.72,22.56,3.72,12.32,0,22.48-3.16,30.48-9.48,8-6.32,12-15.72,12-28.2,0-8-1.76-14.76-5.28-20.28Z"/>
      </g>
      <g>
        <path class="cls-1" d="M76.79,340.59c-5.6,4.72-12,7.08-19.2,7.08-10.24,0-18.24-4.8-24-14.4-5.76-9.6-8.64-22-8.64-37.2,0-35.84,8.8-53.76,26.4-53.76,4.16,0,7.48.72,9.96,2.16,2.48,1.44,4.32,3.24,5.52,5.4,1.2,2.16,2.36,4.92,3.48,8.28,1.59,4.16,3.16,7.16,4.68,9,1.52,1.84,3.96,2.76,7.32,2.76s5.8-1.12,7.8-3.36c2-2.24,3-5.12,3-8.64,0-4-1.52-7.76-4.56-11.28-3.04-3.52-7.52-6.36-13.44-8.52-5.92-2.16-13.04-3.24-21.36-3.24-10.56,0-19.88,2.68-27.96,8.04-8.08,5.36-14.4,13.24-18.96,23.64-4.56,10.4-6.84,22.88-6.84,37.44,0,12.8,2.24,23.6,6.72,32.4,4.48,8.8,10.35,15.36,17.64,19.68,7.28,4.32,15.32,6.48,24.12,6.48,13.12,0,23.52-3.92,31.2-11.76,7.68-7.84,12.72-18.48,15.12-31.92l-5.28-1.2c-2.88,10.56-7.12,18.2-12.72,22.92Z"/>
        <path class="cls-1" d="M187.54,238.59c-3.12-2.48-7.32-3.72-12.6-3.72-6.56,0-12.56,2.04-18,6.12-5.44,4.08-9.84,10.2-13.2,18.36h-1.2v-20.64h-38.16v4.8c5.44,1.28,9.16,3.44,11.16,6.48,2,3.04,3,8.4,3,16.08v65.27c0,7.68-1,13.04-3,16.08-2,3.04-5.72,5.2-11.16,6.48v4.8h52.32v-4.8c-5.44-1.28-9.16-3.44-11.16-6.48-2-3.04-3-8.4-3-16.08v-47.28c1.12-11.04,3.4-19.32,6.84-24.84,3.44-5.52,7.32-8.28,11.64-8.28,1.76,0,3.32.36,4.68,1.08,1.36.72,3.16,1.96,5.4,3.72,2.24,1.76,4.08,3.04,5.52,3.84,1.44.8,3.12,1.2,5.04,1.2,3.04,0,5.56-1.16,7.56-3.48,2-2.32,3-5.16,3-8.52,0-4.32-1.56-7.72-4.68-10.2Z"/>
        <path class="cls-1" d="M254.14,345.27c-11.52,0-20.24-4.56-26.16-13.68-5.6-8.63-8.55-21.35-8.85-38.16h71.48c1.12-18.56-2.36-32.96-10.44-43.2-8.08-10.24-19.8-15.36-35.16-15.36-9.12,0-17.56,2.52-25.32,7.56-7.76,5.04-13.96,12.68-18.6,22.92-4.64,10.24-6.96,22.72-6.96,37.44,0,12.32,2.16,23,6.48,32.04,4.32,9.04,10.32,15.92,18,20.64,7.68,4.72,16.47,7.08,26.4,7.08,12.64,0,22.88-3.84,30.72-11.52,7.83-7.68,13.44-19.44,16.8-35.28l-4.8-.96c-5.28,20.32-16.48,30.48-33.6,30.48ZM226.3,254.19c4.8-8.08,11.04-12.12,18.72-12.12,5.91,0,10.64,1.48,14.16,4.44,3.52,2.96,6,7.92,7.44,14.88,1.24,6,1.65,13.88,1.22,23.64h-48.64c.5-13.42,2.86-23.71,7.1-30.84Z"/>
        <path class="cls-1" d="M404.72,341.67c-1.36,1.92-3,2.88-4.92,2.88-3.36,0-5.04-3.28-5.04-9.84v-64.79c0-11.68-3.76-20.44-11.28-26.28-7.52-5.84-18.48-8.76-32.88-8.76-7.84,0-14.84,1-21,3-6.16,2-11,4.76-14.52,8.28-3.52,3.52-5.28,7.44-5.28,11.76,0,3.36.96,6.2,2.88,8.52,1.92,2.32,4.56,3.48,7.92,3.48,3.04,0,5.36-.88,6.96-2.64,1.59-1.76,3.44-4.56,5.52-8.4,2.56-4.8,5.12-8.44,7.68-10.92,2.56-2.48,6.4-3.72,11.52-3.72,12.32,0,18.48,8.56,18.48,25.68v13.38c-7.95.58-16.94,2.71-27,6.42-11.92,4.4-22.16,10.52-30.72,18.36-8.56,7.84-12.84,16.8-12.84,26.88,0,8.32,2.92,15,8.76,20.04,5.84,5.04,13.08,7.56,21.72,7.56,6.88,0,13.12-1.6,18.72-4.8,5.6-3.2,10.24-7.2,13.92-12,3.68-4.8,6.24-9.68,7.68-14.64h1.2v10.8c0,13.76,5.12,20.64,15.36,20.64,6.72,0,11.88-2.64,15.48-7.92,3.6-5.28,5.4-12.24,5.4-20.88h-1.68c0,3.36-.68,6-2.04,7.92ZM355.89,343.11c-4.48,5.12-9.6,7.68-15.36,7.68-4.64,0-8.48-1.8-11.52-5.4-3.04-3.6-4.56-8.36-4.56-14.28,0-7.84,2.64-14.76,7.92-20.76,5.28-6,11.88-10.56,19.8-13.68,6.33-2.49,12.53-3.97,18.6-4.47v8.43c-.16,7.68-1.56,15.4-4.2,23.16-2.64,7.76-6.2,14.2-10.68,19.32Z"/>
        <path class="cls-1" d="M473.96,343.11c-2.72,2.56-6.08,3.84-10.08,3.84-10.88,0-16.32-7.28-16.32-21.84v-77.99h30.96v-8.4h-30.96v-38.4h-5.04c-3.68,10.56-8.56,19.28-14.64,26.16-6.08,6.88-13.12,10.96-21.12,12.24v8.64h16.8v72.95c0,15.52,2.72,26.44,8.16,32.76,5.44,6.32,13.12,9.48,23.04,9.48,7.84,0,14.07-2.6,18.72-7.8,4.64-5.2,6.96-12.2,6.96-21h-2.4c0,3.68-1.36,6.8-4.08,9.36Z"/>
        <path class="cls-1" d="M530.23,347.43c-2-3.04-3-8.4-3-16.08v-92.63h-38.16v4.8c5.44,1.28,9.16,3.44,11.16,6.48,2,3.04,3,8.4,3,16.08v65.27c0,7.68-1,13.04-3,16.08-2,3.04-5.72,5.2-11.16,6.48v4.8h52.32v-4.8c-5.44-1.28-9.16-3.44-11.16-6.48Z"/>
        <path class="cls-1" d="M672.9,238.71h-43.68v4.8c5.28.8,9.08,1.92,11.4,3.36,2.32,1.44,3.6,3.56,3.84,6.36.24,2.8-.52,6.68-2.28,11.64l-22.1,62.18-27.09-62.66c-2.08-4.8-3.08-8.56-3-11.28.08-2.72,1.24-4.8,3.48-6.24,2.24-1.44,6-2.56,11.28-3.36v-4.8h-58.07v4.8c5.6,1.28,9.96,3.32,13.08,6.12,3.12,2.8,6.12,7.72,9,14.76l39.6,94.31h9.6l33.84-93.83c2.56-7.2,5.32-12.24,8.28-15.12,2.96-2.88,7.24-4.96,12.84-6.24v-4.8Z"/>
        <path class="cls-1" d="M731.46,345.27c-11.52,0-20.24-4.56-26.16-13.68-5.6-8.63-8.55-21.35-8.85-38.16h71.48c1.12-18.56-2.36-32.96-10.44-43.2-8.08-10.24-19.8-15.36-35.16-15.36-9.12,0-17.56,2.52-25.32,7.56-7.76,5.04-13.96,12.68-18.6,22.92-4.64,10.24-6.96,22.72-6.96,37.44,0,12.32,2.16,23,6.48,32.04,4.32,9.04,10.32,15.92,18,20.64,7.68,4.72,16.47,7.08,26.4,7.08,12.64,0,22.88-3.84,30.72-11.52,7.83-7.68,13.44-19.44,16.8-35.28l-4.8-.96c-5.28,20.32-16.48,30.48-33.6,30.48ZM703.62,254.19c4.8-8.08,11.04-12.12,18.72-12.12,5.91,0,10.64,1.48,14.16,4.44,3.52,2.96,6,7.92,7.44,14.88,1.24,6,1.65,13.88,1.22,23.64h-48.64c.5-13.42,2.86-23.71,7.1-30.84Z"/>
        <path class="cls-1" d="M526.03,219.16c3.2-3.28,4.8-7.24,4.8-11.88s-1.6-8.56-4.8-11.76c-3.2-3.2-7.12-4.8-11.76-4.8s-8.6,1.6-11.88,4.8c-3.28,3.2-4.92,7.12-4.92,11.76s1.64,8.6,4.92,11.88c3.28,3.28,7.24,4.92,11.88,4.92s8.56-1.64,11.76-4.92Z"/>
      </g>
    </g>
  </g>
</svg>