<?xml version="1.0" encoding="UTF-8"?>
<svg id="Layer_1" data-name="Layer 1" xmlns="http://www.w3.org/2000/svg" viewBox="0 0 1484.67 296.48">
  <defs>
    <style>
      .cls-1 {
        fill: #7b74fb;
      }
    </style>
  </defs>
  <path class="cls-1" d="M197.98,230.51h-72.19c-19.25,0-32.79-3.82-40.61-11.46-7.82-7.64-10.33-19.4-7.53-35.29l12.61-71.5c2.8-15.89,9.46-27.65,19.97-35.29,10.51-7.64,25.4-11.46,44.65-11.46h57.29c5.5,0,7.76,2.75,6.79,8.25l-4.89,27.73c-.97,5.5-4.21,8.25-9.7,8.25h-47.67c-9.32,0-14.65,3.82-16,11.46l-9.66,54.77c-1.32,7.49,1.53,11.23,8.56,11.23h22.23l6.3-35.75c.97-5.5,4.21-8.25,9.71-8.25h35.52c5.5,0,7.76,2.75,6.79,8.25l-12.49,70.81c-.97,5.5-4.21,8.25-9.7,8.25Z"/>
  <path class="cls-1" d="M282.39,222.26c-.97,5.5-4.21,8.25-9.7,8.25h-33.69c-5.5,0-7.76-2.75-6.79-8.25l10.67-60.5c.81-4.59,2.46-9.85,4.96-15.81,2.5-5.96,5.98-12.91,10.44-20.86l29.11-52.02c2.57-5.04,6.91-7.56,13.02-7.56h61.65c5.96,0,9.33,2.52,10.13,7.56l10.76,52.02c1.65,7.95,2.68,14.9,3.08,20.86.4,5.96.2,11.23-.61,15.81l-10.67,60.5c-.97,5.5-4.2,8.25-9.7,8.25h-34.6c-5.96,0-8.45-2.75-7.48-8.25l5.66-32.08h-40.56l-5.66,32.08ZM314.61,113.63l-16.91,34.83h35.98l-4.63-34.83c-.61-2.6-1.83-3.89-3.67-3.89h-5.73c-1.84,0-3.52,1.3-5.04,3.89Z"/>
  <path class="cls-1" d="M443.88,230.51h-34.15c-5.5,0-7.76-2.75-6.79-8.25l26.18-148.5c.97-5.5,4.2-8.25,9.7-8.25h36.9c4.58,0,7.69,2.29,9.33,6.87l14.04,37.35c.52,1.38.99,2.37,1.42,2.98.43.61,1.1.92,2.02.92h2.06c.92,0,1.69-.3,2.34-.92.64-.61,1.46-1.6,2.48-2.98l26.98-37.35c3.25-4.58,7.17-6.87,11.76-6.87h37.13c5.5,0,7.76,2.75,6.79,8.25l-26.18,148.5c-.97,5.5-4.21,8.25-9.7,8.25h-35.29c-5.5,0-7.76-2.75-6.79-8.25l14.22-80.67-17.93,24.98c-3.46,4.89-7.94,7.33-13.44,7.33h-9.17c-5.5,0-9.12-2.44-10.85-7.33l-9.12-24.98-14.22,80.67c-.97,5.5-4.21,8.25-9.7,8.25Z"/>
  <path class="cls-1" d="M710.64,230.51h-106.34c-5.5,0-7.76-2.75-6.79-8.25l26.18-148.5c.97-5.5,4.2-8.25,9.7-8.25h106.34c5.5,0,7.76,2.75,6.79,8.25l-4.73,26.81c-.97,5.5-4.21,8.25-9.7,8.25h-63.25l-3.11,17.64h44.69c5.5,0,7.77,2.75,6.8,8.25l-4.32,24.52c-.97,5.5-4.21,8.25-9.71,8.25h-44.69l-3.48,19.71h63.25c5.5,0,7.76,2.75,6.79,8.25l-4.73,26.81c-.97,5.5-4.21,8.25-9.7,8.25Z"/>
  <path class="cls-1" d="M789.47,230.51h-35.29c-5.5,0-7.76-2.75-6.79-8.25l26.18-148.5c.97-5.5,4.2-8.25,9.7-8.25h76.31c11.46,0,20.19,1.6,26.19,4.81,6,3.21,9.88,7.68,11.62,13.41,1.74,5.73,1.94,12.41.59,20.05l-1.86,10.54c-1.13,6.42-3.01,11.84-5.62,16.27-2.62,4.43-6.56,7.71-11.82,9.85,8.24.92,14.37,4.28,18.39,10.08,4.02,5.81,5.18,13.52,3.48,23.15l-8.57,48.58c-.97,5.5-4.21,8.25-9.7,8.25h-35.52c-5.5,0-7.77-2.75-6.8-8.25l6.18-35.06c.62-3.51.41-6.03-.61-7.56-1.03-1.53-3.15-2.29-6.36-2.29h-32.08l-7.92,44.92c-.97,5.5-4.21,8.25-9.7,8.25ZM819.54,106.76l-5.17,29.33h17.19c3.97,0,6.83-1.03,8.57-3.09,1.74-2.06,2.88-4.62,3.42-7.68l1.37-7.79c.54-3.05.3-5.62-.71-7.68-1.01-2.06-3.51-3.09-7.48-3.09h-17.19Z"/>
  <path class="cls-1" d="M959.97,230.51h-35.52c-5.5,0-7.76-2.75-6.79-8.25l26.19-148.5c.97-5.5,4.2-8.25,9.7-8.25h70.13c13.9,0,24.46,1.87,31.67,5.61,7.21,3.75,11.83,8.98,13.85,15.7,2.03,6.73,2.26,14.52.69,23.38l-5.17,29.33c-1.56,8.86-4.54,16.65-8.94,23.38-4.39,6.72-10.85,11.96-19.38,15.7-8.53,3.74-19.74,5.61-33.65,5.61h-26.35l-6.71,38.04c-.97,5.5-4.2,8.25-9.7,8.25ZM989.3,108.36l-6.1,34.6h20.63c4.43,0,7.53-1.15,9.31-3.44,1.78-2.29,2.92-4.89,3.44-7.79l2.14-12.15c.54-3.05.32-5.69-.67-7.9s-3.69-3.32-8.12-3.32h-20.63Z"/>
  <path class="cls-1" d="M1118.41,222.26c-.97,5.5-4.21,8.25-9.7,8.25h-33.69c-5.5,0-7.76-2.75-6.79-8.25l10.67-60.5c.81-4.59,2.46-9.85,4.96-15.81,2.5-5.96,5.98-12.91,10.44-20.86l29.11-52.02c2.57-5.04,6.91-7.56,13.02-7.56h61.65c5.96,0,9.33,2.52,10.12,7.56l10.76,52.02c1.65,7.95,2.68,14.9,3.08,20.86.4,5.96.19,11.23-.61,15.81l-10.67,60.5c-.97,5.5-4.2,8.25-9.7,8.25h-34.6c-5.96,0-8.45-2.75-7.48-8.25l5.66-32.08h-40.56l-5.66,32.08ZM1150.63,113.63l-16.91,34.83h35.98l-4.63-34.83c-.61-2.6-1.83-3.89-3.67-3.89h-5.73c-1.84,0-3.52,1.3-5.04,3.89Z"/>
  <path class="cls-1" d="M1322.99,230.51h-77.23c-5.5,0-7.76-2.75-6.79-8.25l26.19-148.5c.97-5.5,4.2-8.25,9.7-8.25h77.23c19.25,0,32.78,3.82,40.6,11.46,7.82,7.64,10.33,19.4,7.53,35.29l-12.61,71.5c-2.8,15.89-9.46,27.66-19.97,35.29-10.51,7.64-25.4,11.46-44.64,11.46ZM1310.9,109.28l-13.74,77.92h27.27c7.18,0,11.43-3.74,12.75-11.23l9.82-55.69c1.29-7.34-1.65-11-8.83-11h-27.27Z"/>
</svg>