<?xml version="1.0" encoding="UTF-8"?>
<svg id="Layer_1" data-name="Layer 1" xmlns="http://www.w3.org/2000/svg" viewBox="0 0 526.57 363.6">
  <defs>
    <style>
      .cls-1 {
        fill: #faad3d;
      }
    </style>
  </defs>
  <path class="cls-1" d="M451.28,133.25v-19.96c.07-1.61-1.23-2.97-2.84-2.97h-173.13c-1.58,0-2.85,1.27-2.85,2.84v173.36c0,1.64,1.38,2.94,3.02,2.84l20.06-1.19c37.25-2.21,68.24-11.51,92.43-27.71,1.13-.75,2.61-.63,3.58.32l24.63,23.51c1.12,1.09,2.91,1.08,4.02-.05l26.51-27.08c1.1-1.12,1.08-2.93-.04-4.02l-19.69-18.73c-4.59,3.96-10.52,6.46-16.22,7.05,4.1-3.7,41.47-37.87,40.52-108.22ZM403.83,157.3c-2.65,14.06-6.91,26.41-12.75,36.97-.91,1.64-3.14,1.97-4.49.66l-9.78-9.6c-1.12-1.11-2.93-1.08-4.02.04l-26.52,27.08c-1.09,1.13-1.08,2.93.05,4.03l8.8,8.64c1.38,1.36,1.03,3.68-.69,4.57-10.13,5.24-20.23,9.17-33.44,11.74-1.75.34-3.36-1.02-3.36-2.79v-76.75l-20.04-7.98s22.77,0,22.88,0h80.55c1.8,0,3.13,1.64,2.8,3.4Z"/>
  <path class="cls-1" d="M258.38,113.18v173.34c0,1.57-1.28,2.84-2.84,2.84h-22.4c-52.28-1.99-90.29-16.96-116.18-45.76-27.05-30.07-41.33-71.56-41.33-129.7v-.74c0-1.57,1.28-2.84,2.86-2.84l42.71.09c1.56.01,2.83,1.28,2.83,2.83v.02c-.04,22.79,2.41,38.05,7.28,55.55,4.92,17.65,12.2,31.93,21.65,42.44,22.26,24.75,66.7,32.12,75.02,33.05-6.9-3.74-13-8.09-17.98-13.34v-117.79c-.01-1.58,1.26-2.86,2.84-2.86h42.69c1.58,0,2.86,1.28,2.86,2.86Z"/>
</svg>