<?xml version="1.0" encoding="UTF-8"?>
<svg id="Layer_1" data-name="Layer 1" xmlns="http://www.w3.org/2000/svg" viewBox="0 0 940.15 239.17">
  <defs>
    <style>
      .cls-1 {
        fill: #faad3d;
      }
    </style>
  </defs>
  <g>
    <path class="cls-1" d="M579.2,87.23v-10c.04-.81-.61-1.49-1.42-1.49h-86.79c-.79,0-1.43.64-1.43,1.42v86.9c0,.82.69,1.47,1.52,1.42l10.05-.6c18.67-1.11,34.21-5.77,46.34-13.89.57-.38,1.31-.32,1.8.16l12.34,11.79c.56.55,1.46.54,2.01-.02l13.29-13.57c.55-.56.54-1.47-.02-2.01l-9.87-9.39c-2.3,1.98-5.27,3.24-8.13,3.53,2.05-1.86,20.79-18.98,20.31-54.25ZM555.42,99.28c-1.33,7.05-3.46,13.24-6.39,18.53-.46.82-1.58.99-2.25.33l-4.9-4.81c-.56-.55-1.47-.54-2.01.02l-13.29,13.57c-.55.57-.54,1.47.02,2.02l4.41,4.33c.69.68.52,1.84-.35,2.29-5.08,2.63-10.14,4.6-16.76,5.89-.88.17-1.69-.51-1.69-1.4v-38.47l-10.05-4s11.41,0,11.47,0h40.38c.9,0,1.57.82,1.41,1.7Z"/>
    <path class="cls-1" d="M698.67,147.5h-10.71c3.45.96,6.66,2.34,9.58,4.18l1.13.61v9.87c0,.78-.62,1.39-1.39,1.39h-21.05c-.77,0-1.39-.62-1.39-1.39v-85.1c0-.78.63-1.39,1.39-1.39h21.05c.78,0,1.39.62,1.39,1.39v70.45Z"/>
    <path class="cls-1" d="M864.32,161.48c.56.92-.12,2.11-1.19,2.11h-24.52c-.49,0-.94-.26-1.19-.68l-16.71-27.96c-.73-1.21-2.59-.7-2.59.72v26.53c0,.77-.62,1.39-1.39,1.39h-21.04c-.77,0-1.39-.63-1.39-1.39v-85.11c0-.77.63-1.39,1.39-1.39h21.04c.77,0,1.39.63,1.39,1.39v26.53c0,1.41,1.87,1.93,2.59.72l16.71-27.96c.25-.42.71-.68,1.19-.68h24.52c1.07,0,1.75,1.18,1.19,2.11l-24.57,41.11h-9.77c3.45.96,6.66,2.33,9.58,4.18l2.66,1.41,22.1,36.97Z"/>
    <path class="cls-1" d="M663.45,75.74h-21.04c-.77,0-1.39.62-1.39,1.39v50.55c0,7.73-6.26,13.99-13.99,13.99h0c-7.73,0-13.99-6.26-13.99-13.99v-50.55c0-.77-.62-1.39-1.39-1.39h-21.04c-.77,0-1.39.62-1.39,1.39v50.55c0,20.88,16.93,37.81,37.81,37.81h0c20.88,0,37.81-16.93,37.81-37.81v-50.55c0-.77-.62-1.39-1.39-1.39Z"/>
    <path class="cls-1" d="M784.29,98v-20.94c0-.77-.62-1.39-1.39-1.39h-31.04c-24.27,0-43.94,19.67-43.94,43.94h0c0,24.27,19.67,43.94,43.94,43.94h31.04c.77,0,1.39-.62,1.39-1.39v-20.94c0-.77-.62-1.39-1.39-1.39h-31.04c-11.16,0-20.21-9.05-20.21-20.21h0c0-11.16,9.05-20.21,20.21-20.21h31.04c.77,0,1.39-.62,1.39-1.39Z"/>
  </g>
  <g>
    <path class="cls-1" d="M346.58,91.67h10.71c-3.45-.96-6.66-2.34-9.58-4.18l-1.13-.61v-9.87c0-.78.62-1.39,1.39-1.39h21.05c.77,0,1.39.62,1.39,1.39v85.1c0,.78-.63,1.39-1.39,1.39h-21.05c-.78,0-1.39-.62-1.39-1.39v-70.45Z"/>
    <path class="cls-1" d="M213.15,73.68c-10.44,0-19.9,4.23-26.74,11.08-6.85,6.85-11.08,16.29-11.08,26.74v50.62c0,.77.62,1.39,1.39,1.39h21.04c.77,0,1.39-.63,1.39-1.39v-15.46c-2.35-1.49-4.95-2.59-7.72-3.38h34.31c.77,0,1.39.63,1.39,1.39v17.45c0,.77.62,1.39,1.39,1.39h21.04c.77,0,1.39-.63,1.39-1.39v-50.62c0-20.88-16.93-37.81-37.81-37.81ZM225.9,123.5h-3.97s-21.38,0-21.38,0c-.77,0-1.39-.63-1.39-1.39v-12.46c0-7.72,6.27-13.99,13.99-13.99,3.86,0,7.36,1.57,9.9,4.1,2.53,2.52,4.09,6.02,4.09,9.89v10.56c2.31,1.46,4.85,2.54,7.56,3.3h-8.79Z"/>
    <path class="cls-1" d="M431.35,129.46c-.49-.8-.03-1.85.88-2.06,4.7-1.09,8.89-3.59,12.17-7.04,4.51-4.75,7.29-11.31,7.29-18.54,0-6.24-2.07-11.97-5.53-16.46-.05-.07-.11-.14-.17-.21-4.27-5.45-10.6-9.05-17.74-9.49-.49-.03-.97-.04-1.46-.04h-44.99c-.77,0-1.39.63-1.39,1.39v85.11c0,.77.63,1.39,1.39,1.39h21.04c.77,0,1.39-.63,1.39-1.39v-30.01h11.87c-3.06.86-5.94,2.05-8.58,3.59l16.24,27.14c.25.42.71.68,1.19.68h24.29c1.07,0,1.75-1.17,1.19-2.11l-19.1-31.94ZM426.57,108.68c-1.41,1.57-3.31,2.6-5.42,2.79-.24.03-.48.04-.73.04h-21.98c2.08-.58,4.01-1.4,5.79-2.49v-15.48c0-.77.63-1.39,1.39-1.39h14.79c2.73,0,5.18,1.4,6.77,3.6,1.21,1.66,1.93,3.78,1.93,6.08,0,2.67-.97,5.1-2.54,6.86Z"/>
    <path class="cls-1" d="M165.33,77.03v85.09c0,.77-.63,1.4-1.4,1.4h-11c-25.66-.98-44.32-8.33-57.03-22.46-13.28-14.76-20.29-35.13-20.29-63.66v-.36c0-.77.63-1.4,1.4-1.4l20.96.04c.76,0,1.39.63,1.39,1.39h0c-.02,11.2,1.18,18.69,3.57,27.28,2.42,8.67,5.99,15.67,10.63,20.83,10.93,12.15,32.74,15.76,36.82,16.22-3.39-1.83-6.38-3.97-8.82-6.55v-57.82c0-.78.62-1.4,1.4-1.4h20.96c.78,0,1.4.63,1.4,1.4Z"/>
    <path class="cls-1" d="M312.76,77.02v31.35s0,.09,0,.14l1.2,11.75-28.77-44c-.26-.39-.69-.63-1.16-.63h-21.68c-.77,0-1.39.62-1.39,1.39v85.1c0,.77.62,1.39,1.39,1.39h21.04c.77,0,1.39-.62,1.39-1.39v-28.37s0-.05,0-.07l-.76-14.11,28.32,43.31c.26.39.69.63,1.16.63h21.68c.77,0,1.39-.62,1.39-1.39v-85.1c0-.77-.62-1.39-1.39-1.39h-21.04c-.77,0-1.39.62-1.39,1.39Z"/>
  </g>
</svg>